Coordinates
version=1
nRows=17
nColumns=38
inDegrees=no

Units are S.I. units (second, meters, Newtons, ...)
If the header above contains a line with 'inDegrees', this indicates whether rotational values are in degrees (yes) or radians (no).

endheader
time	pelvis_tilt	pelvis_list	pelvis_rotation	pelvis_tx	pelvis_ty	pelvis_tz	hip_flexion_r	hip_adduction_r	hip_rotation_r	knee_angle_r	ankle_angle_r	subtalar_angle_r	mtp_angle_r	hip_flexion_l	hip_adduction_l	hip_rotation_l	knee_angle_l	ankle_angle_l	subtalar_angle_l	mtp_angle_l	lumbar_extension	lumbar_bending	lumbar_rotation	arm_flex_r	arm_add_r	arm_rot_r	elbow_flex_r	pro_sup_r	wrist_flex_r	wrist_dev_r	arm_flex_l	arm_add_l	arm_rot_l	elbow_flex_l	pro_sup_l	wrist_flex_l	wrist_dev_l
1.57	2.43409	1.41276	-0.733767	0.762024	1.19671	0.945424	0.162634	0.107922	-0.355995	0.232922	-0.0666652	0	0	-0.140839	-0.289455	-0.295068	0.814446	-0.2193	0	0	-0.148176	0.194594	0.013793	-0.0461462	-0.323502	0.757725	0.432911	0.824936	0	0	0.0535221	-0.193327	0.232036	0.310416	1.5708	0	0
1.58	2.42481	1.41161	-0.727838	0.763967	1.20661	0.946545	0.149623	0.115998	-0.348213	0.228256	-0.0627147	0	0	-0.104994	-0.301787	-0.280121	0.872443	-0.280561	0	0	-0.147585	0.194919	0.0199604	-0.0483097	-0.325525	0.757385	0.43715	0.824526	0	0	0.0530774	-0.195802	0.23532	0.314078	1.5708	0	0
1.59	2.43136	1.40979	-0.73671	0.76565	1.21611	0.947932	0.134947	0.12166	-0.339982	0.225058	-0.0571319	0	0	-0.0713071	-0.310431	-0.263678	0.926254	-0.32842	0	0	-0.150544	0.194058	0.0250504	-0.0488983	-0.327649	0.756659	0.441521	0.823966	0	0	0.0532009	-0.198497	0.238176	0.319776	1.5708	0	0
1.6	2.44957	1.40783	-0.756879	0.767149	1.22531	0.949519	0.119063	0.125153	-0.331643	0.222468	-0.051596	0	0	-0.0404172	-0.315158	-0.24745	0.974128	-0.35491	0	0	-0.155769	0.191967	0.0295421	-0.0484633	-0.329859	0.754839	0.446287	0.822654	0	0	0.0537963	-0.201344	0.241981	0.325926	1.5708	0	0
1.61	2.44254	1.39564	-0.753341	0.768648	1.23368	0.952422	0.087714	0.142525	-0.326034	0.19395	-0.0659838	0	0	-0.0146921	-0.329944	-0.233659	1.01702	-0.364014	0	0	-0.168385	0.201631	0.0373103	-0.045144	-0.334623	0.753589	0.451347	0.818978	0	0	0.0581652	-0.200534	0.248971	0.328384	1.5708	0	0
1.62	2.47282	1.39471	-0.78545	0.770038	1.2426	0.954223	0.0696685	0.14309	-0.317824	0.189188	-0.0619231	0	0	0.0141467	-0.327945	-0.216656	1.05737	-0.352692	0	0	-0.174729	0.196716	0.0409228	-0.0434428	-0.335649	0.755703	0.4543	0.817688	0	0	0.0601882	-0.202368	0.252986	0.330796	1.5708	0	0
1.63	2.50585	1.39411	-0.820489	0.771411	1.25132	0.95606	0.0512241	0.142755	-0.310502	0.183729	-0.0568619	0	0	0.0432112	-0.324205	-0.199776	1.09656	-0.324983	0	0	-0.181262	0.190998	0.0441723	-0.0409981	-0.335374	0.756939	0.455373	0.817671	0	0	0.0627659	-0.203255	0.25522	0.331036	1.5708	0	0
1.64	2.57696	1.40363	-0.892613	0.77273	1.26062	0.956716	0.0470257	0.127013	-0.300981	0.202177	-0.0335664	0	0	0.074573	-0.305334	-0.18294	1.1314	-0.289045	0	0	-0.180923	0.172017	0.0437422	-0.0401881	-0.330902	0.757498	0.453421	0.818879	0	0	0.0615974	-0.207745	0.257951	0.335208	1.5708	0	0
1.65	2.61354	1.4033	-0.932653	0.774113	1.2691	0.958559	0.0277465	0.125945	-0.293926	0.193538	-0.0303447	0	0	0.100934	-0.297766	-0.16902	1.15855	-0.258814	0	0	-0.187085	0.165493	0.0473465	-0.0360651	-0.327773	0.755459	0.448619	0.821727	0	0	0.0645347	-0.207129	0.258949	0.333525	1.5708	0	0
1.66	2.64596	1.40384	-0.968936	0.775468	1.27741	0.960212	0.00939279	0.124765	-0.287441	0.183344	-0.0279659	0	0	0.126635	-0.289736	-0.157957	1.17859	-0.235025	0	0	-0.191981	0.15909	0.0518945	-0.0318289	-0.324657	0.754022	0.443185	0.82479	0	0	0.0688395	-0.204993	0.258711	0.329048	1.5708	0	0
1.67	2.63579	1.39491	-0.964488	0.776885	1.2849	0.962992	-0.0272038	0.139509	-0.278643	0.140729	-0.0491095	0	0	0.147153	-0.295047	-0.149747	1.19171	-0.217345	0	0	-0.20359	0.165485	0.0605648	-0.0250768	-0.322718	0.747043	0.435557	0.833251	0	0	0.0792481	-0.196395	0.25065	0.31365	1.5708	0	0
1.68	2.70306	1.40506	-1.03586	0.778304	1.29349	0.963155	-0.0290995	0.123762	-0.270614	0.154989	-0.0290148	0	0	0.174068	-0.2742	-0.143663	1.20073	-0.200281	0	0	-0.200637	0.147177	0.0640307	-0.0231772	-0.317079	0.74562	0.43027	0.835259	0	0	0.0815211	-0.197547	0.250429	0.311953	1.5708	0	0
1.69	2.73453	1.40583	-1.07445	0.779804	1.30138	0.964537	-0.0462341	0.121051	-0.263411	0.144976	-0.0275213	0	0	0.194702	-0.265287	-0.14028	1.20368	-0.186849	0	0	-0.205005	0.140425	0.0727133	-0.0186666	-0.313385	0.741554	0.422806	0.838692	0	0	0.0878542	-0.194735	0.250942	0.305992	1.5708	0	0
1.7	2.72422	1.39611	-1.07236	0.781233	1.30867	0.967295	-0.0838712	0.133729	-0.250238	0.103409	-0.0501801	0	0	0.20707	-0.270472	-0.139801	1.19974	-0.175816	0	0	-0.217988	0.146387	0.0845967	-0.0120551	-0.312939	0.736304	0.416469	0.843943	0	0	0.0990759	-0.186696	0.24573	0.291817	1.5708	0	0
1.71	2.79159	1.40503	-1.14661	0.782784	1.31692	0.967281	-0.0840499	0.117663	-0.243881	0.118797	-0.0305833	0	0	0.228502	-0.252288	-0.143127	1.19438	-0.1613	0	0	-0.214742	0.129005	0.0910675	-0.00996018	-0.309012	0.736925	0.412271	0.844389	0	0	0.102039	-0.188349	0.247558	0.290848	1.5708	0	0
1.72	2.82151	1.40482	-1.18636	0.784423	1.32453	0.968557	-0.100121	0.114093	-0.236853	0.110678	-0.0287193	0	0	0.24244	-0.245556	-0.148144	1.18319	-0.146845	0	0	-0.219568	0.122407	0.102428	-0.00556713	-0.307668	0.736671	0.407324	0.846005	0	0	0.108648	-0.186497	0.250291	0.285847	1.5708	0	0
1.73	2.8485	1.40401	-1.22344	0.786055	1.33205	0.969796	-0.118408	0.1117	-0.226638	0.0979918	-0.0302858	0	0	0.254163	-0.240192	-0.155395	1.16759	-0.131412	0	0	-0.224758	0.116261	0.113848	-0.00130993	-0.307503	0.736902	0.404549	0.846822	0	0	0.115171	-0.184642	0.250771	0.28131	1.5708	0	0
